<svg xmlns="http://www.w3.org/2000/svg" xmlns:xlink="http://www.w3.org/1999/xlink" width="491" zoomAndPan="magnify" viewBox="0 0 368.25 183.749994" height="245" preserveAspectRatio="xMidYMid meet" version="1.0"><defs><g/><clipPath id="6493a7988d"><path d="M 8 66 L 154.546875 66 L 154.546875 150 L 8 150 Z M 8 66 " clip-rule="nonzero"/></clipPath><clipPath id="c19c433b3f"><path d="M 14 18.019531 L 153 18.019531 L 153 143 L 14 143 Z M 14 18.019531 " clip-rule="nonzero"/></clipPath></defs><g clip-path="url(#6493a7988d)"><path fill="#8c52ff" d="M 148.542969 80.175781 C 148.542969 80.175781 154.519531 81.125 154.519531 82.863281 C 154.519531 84.605469 144.433594 98.765625 136.996094 107.941406 C 129.558594 117.117188 112 145.988281 108.992188 149.152344 C 105.988281 152.316406 91.117188 129.851562 60.742188 122.890625 C 60.742188 122.890625 52.824219 126.539062 47.292969 117.984375 C 47.292969 117.984375 22.769531 107.386719 11.382812 106.433594 C -0.0117188 105.484375 29.257812 87.132812 43.972656 71.628906 C 58.6875 56.125 148.542969 80.175781 148.542969 80.175781 Z M 148.542969 80.175781 " fill-opacity="1" fill-rule="nonzero"/></g><g clip-path="url(#c19c433b3f)"><path fill="#e6eff4" d="M 147.433594 61.820312 C 146.328125 63.722656 143.636719 68.152344 143.636719 68.152344 C 147.75 68.308594 152.179688 71.949219 152.179688 71.949219 L 150.4375 79.070312 C 150.4375 79.070312 147.117188 85.082031 138.570312 95.367188 C 130.027344 105.648438 105.820312 142.039062 105.820312 142.039062 C 84.460938 119.101562 58.515625 117.832031 58.515625 117.832031 C 58.515625 117.832031 57.882812 114.351562 55.195312 113.71875 C 52.503906 113.085938 50.132812 115.460938 50.132812 115.460938 C 40.324219 100.902344 16.273438 99.957031 16.273438 99.957031 L 14.058594 94.261719 C 15.328125 92.519531 20.226562 87.613281 20.226562 87.613281 C 18.800781 86.347656 14.058594 84.609375 14.058594 84.609375 C 17.542969 78.433594 24.664062 70.683594 24.664062 70.683594 C 23.398438 69.894531 19.917969 68.152344 19.917969 68.152344 C 19.917969 68.152344 32.101562 52.964844 40.167969 43.945312 C 48.234375 34.925781 64.21875 18.019531 64.21875 18.019531 C 96.335938 26.421875 94.277344 56.441406 94.277344 56.441406 C 120.378906 45.6875 147.433594 61.820312 147.433594 61.820312 Z M 147.433594 61.820312 " fill-opacity="1" fill-rule="nonzero"/></g><path fill="#01070a" d="M 54.855469 111.136719 C 54.941406 111.332031 54.160156 111.582031 54.058594 111.351562 C 52.570312 107.964844 50.945312 104.644531 49.148438 101.410156 C 45.964844 95.683594 42.292969 90.230469 38.183594 85.125 C 36.128906 82.566406 33.960938 80.097656 31.6875 77.726562 C 29.433594 75.363281 27.0625 73.113281 24.703125 70.863281 C 24.574219 70.742188 25.109375 70.550781 25.234375 70.65625 C 28.117188 73.003906 30.769531 75.613281 33.304688 78.328125 C 37.785156 83.121094 41.855469 88.296875 45.460938 93.777344 C 49.085938 99.277344 52.25 105.09375 54.855469 111.136719 Z M 108.902344 122.828125 C 110.117188 120.917969 111.355469 119.015625 112.601562 117.121094 C 115.089844 113.332031 117.621094 109.570312 120.152344 105.808594 C 125.246094 98.25 130.324219 90.683594 135 82.859375 C 137.632812 78.453125 140.15625 73.976562 142.421875 69.367188 C 142.460938 69.289062 141.859375 69.328125 141.78125 69.488281 C 137.628906 77.605469 132.953125 85.421875 128 93.074219 C 123.039062 100.734375 117.859375 108.242188 112.808594 115.839844 C 111.394531 117.964844 109.996094 120.105469 108.617188 122.253906 C 107.269531 124.359375 105.863281 126.457031 104.648438 128.640625 C 103.621094 127.507812 102.359375 126.59375 101.082031 125.757812 C 99.765625 124.898438 98.390625 124.140625 96.992188 123.433594 C 94.109375 121.988281 91.132812 120.71875 88.136719 119.527344 C 81.976562 117.082031 75.601562 115.09375 69.050781 114.027344 C 67.21875 113.730469 65.375 113.503906 63.527344 113.363281 C 61.667969 113.21875 59.78125 113.117188 57.917969 113.210938 C 57.464844 113.230469 57.308594 113.785156 57.847656 113.796875 C 59.480469 113.828125 61.105469 113.828125 62.738281 113.9375 C 64.371094 114.050781 66.003906 114.226562 67.628906 114.464844 C 70.855469 114.9375 74.046875 115.632812 77.183594 116.507812 C 83.417969 118.242188 89.511719 120.628906 95.359375 123.398438 C 96.914062 124.140625 98.449219 124.9375 99.910156 125.847656 C 101.402344 126.777344 102.761719 127.863281 104.132812 128.957031 C 104.238281 129.039062 104.472656 128.988281 104.601562 128.890625 C 104.757812 128.898438 105.113281 128.839844 105.183594 128.730469 C 106.476562 126.796875 107.652344 124.789062 108.902344 122.828125 Z M 150.730469 72.589844 C 149.097656 74.488281 147.601562 76.511719 146.066406 78.492188 C 144.539062 80.464844 143.015625 82.445312 141.492188 84.421875 C 138.472656 88.339844 135.453125 92.253906 132.4375 96.167969 C 126.488281 103.886719 120.394531 111.507812 114.761719 119.460938 C 111.679688 123.808594 108.660156 128.222656 105.84375 132.746094 C 105.742188 132.910156 105.933594 133.042969 106.070312 133.0625 C 106.265625 133.089844 106.445312 132.992188 106.550781 132.835938 C 109.167969 128.824219 111.792969 124.824219 114.542969 120.902344 C 117.292969 116.988281 120.132812 113.132812 123.027344 109.320312 C 128.976562 101.5 135.007812 93.746094 141.003906 85.964844 C 142.699219 83.761719 144.398438 81.5625 146.09375 79.355469 C 147.777344 77.164062 149.53125 74.996094 151.097656 72.714844 C 151.257812 72.484375 150.859375 72.441406 150.730469 72.589844 Z M 140.398438 89.230469 C 138.246094 92.210938 136.179688 95.253906 133.992188 98.207031 C 131.824219 101.132812 129.585938 104.003906 127.328125 106.859375 C 122.839844 112.527344 118.265625 118.136719 114.019531 123.992188 C 112.816406 125.644531 111.644531 127.324219 110.503906 129.023438 C 109.40625 130.667969 108.289062 132.332031 107.417969 134.109375 C 107.359375 134.230469 107.84375 134.144531 107.90625 134.054688 C 108.988281 132.53125 109.976562 130.941406 111.015625 129.386719 C 112.007812 127.894531 113.027344 126.417969 114.070312 124.960938 C 116.1875 122.007812 118.394531 119.113281 120.632812 116.25 C 125.089844 110.550781 129.6875 104.960938 134.019531 99.164062 C 136.421875 95.953125 138.832031 92.699219 140.777344 89.1875 C 140.824219 89.109375 140.449219 89.160156 140.398438 89.230469 Z M 102.246094 133.433594 C 101.429688 132.652344 100.597656 131.894531 99.738281 131.164062 C 98.050781 129.726562 96.289062 128.382812 94.457031 127.128906 C 90.722656 124.582031 86.71875 122.429688 82.53125 120.734375 C 80.1875 119.78125 77.773438 118.882812 75.285156 118.394531 C 75.167969 118.367188 74.691406 118.582031 74.921875 118.664062 C 77 119.414062 79.121094 120.039062 81.179688 120.84375 C 83.242188 121.652344 85.265625 122.570312 87.234375 123.59375 C 91.210938 125.65625 94.964844 128.136719 98.417969 130.984375 C 99.375 131.773438 100.308594 132.585938 101.21875 133.425781 C 102.175781 134.304688 103.105469 135.25 104.128906 136.050781 C 104.214844 136.117188 104.558594 136.042969 104.464844 135.90625 C 103.855469 135 103.03125 134.1875 102.246094 133.433594 Z M 87.015625 124.894531 C 85.089844 123.875 83.128906 122.925781 81.132812 122.054688 C 77.101562 120.296875 72.925781 118.828125 68.664062 117.738281 C 66.238281 117.113281 63.777344 116.574219 61.292969 116.25 C 61.132812 116.226562 60.957031 116.441406 61.179688 116.492188 C 65.460938 117.398438 69.703125 118.390625 73.859375 119.789062 C 78.011719 121.183594 82.058594 122.898438 85.949219 124.917969 C 88.15625 126.066406 90.292969 127.34375 92.457031 128.574219 C 92.597656 128.65625 92.960938 128.480469 92.765625 128.34375 C 90.941406 127.042969 88.992188 125.945312 87.015625 124.894531 Z M 96.65625 127.085938 C 97.65625 127.722656 98.636719 128.390625 99.585938 129.09375 C 100.066406 129.449219 100.535156 129.808594 101 130.175781 C 101.46875 130.546875 101.953125 131.023438 102.503906 131.261719 C 102.644531 131.324219 102.933594 131.191406 102.832031 131.011719 C 102.554688 130.519531 101.953125 130.128906 101.515625 129.78125 C 101.050781 129.414062 100.578125 129.054688 100.101562 128.703125 C 99.109375 127.96875 98.085938 127.277344 97.042969 126.628906 C 94.960938 125.332031 92.78125 124.234375 90.523438 123.269531 C 90.3125 123.179688 89.960938 123.476562 90.246094 123.605469 C 92.460938 124.597656 94.605469 125.785156 96.65625 127.085938 Z M 49.71875 107.8125 C 48.886719 106.859375 48.023438 105.929688 47.132812 105.027344 C 45.34375 103.222656 43.453125 101.523438 41.476562 99.925781 C 37.472656 96.695312 33.125 93.902344 28.582031 91.496094 C 27.324219 90.828125 26.042969 90.191406 24.75 89.585938 C 23.4375 88.964844 22.082031 88.273438 20.664062 87.929688 C 20.578125 87.910156 20.265625 88.019531 20.421875 88.125 C 21.4375 88.816406 22.652344 89.261719 23.761719 89.785156 C 24.914062 90.328125 26.054688 90.894531 27.183594 91.484375 C 29.445312 92.664062 31.660156 93.933594 33.8125 95.308594 C 38.09375 98.039062 42.125 101.167969 45.746094 104.738281 C 46.753906 105.734375 47.730469 106.757812 48.671875 107.820312 C 49.628906 108.898438 50.519531 110.039062 51.472656 111.128906 C 51.640625 111.324219 52.296875 111.113281 52.117188 110.839844 C 51.410156 109.765625 50.5625 108.78125 49.71875 107.8125 Z M 40.984375 104.359375 C 42.101562 105.066406 43.195312 105.804688 44.265625 106.574219 C 45.347656 107.351562 46.367188 108.238281 47.496094 108.945312 C 47.585938 109.003906 48.054688 108.855469 47.980469 108.78125 C 47.1875 107.929688 46.175781 107.257812 45.242188 106.578125 C 44.300781 105.890625 43.339844 105.230469 42.367188 104.59375 C 40.394531 103.308594 38.347656 102.136719 36.246094 101.066406 C 32.089844 98.941406 27.722656 97.269531 23.21875 96.035156 C 20.636719 95.328125 18.011719 94.765625 15.355469 94.410156 C 15.265625 94.398438 14.910156 94.546875 15.011719 94.5625 C 19.625 95.339844 24.148438 96.472656 28.523438 98.132812 C 32.878906 99.792969 37.046875 101.871094 40.984375 104.359375 Z M 29.992188 99.96875 C 29.339844 99.714844 28.675781 99.476562 28.015625 99.242188 C 26.730469 98.796875 25.433594 98.386719 24.125 98.019531 C 21.46875 97.265625 18.746094 96.609375 15.996094 96.328125 C 15.9375 96.320312 15.65625 96.4375 15.761719 96.460938 C 18.378906 97.0625 21.003906 97.558594 23.585938 98.285156 C 24.898438 98.652344 26.195312 99.0625 27.480469 99.507812 C 28.125 99.730469 28.761719 99.960938 29.402344 100.199219 C 30.058594 100.445312 30.707031 100.734375 31.382812 100.910156 C 31.453125 100.929688 31.847656 100.808594 31.757812 100.75 C 31.226562 100.398438 30.589844 100.195312 29.992188 99.96875 Z M 43.738281 107.148438 C 41.535156 105.652344 39.214844 104.332031 36.851562 103.101562 C 36.722656 103.035156 36.363281 103.203125 36.546875 103.3125 C 38.769531 104.65625 41.046875 105.917969 43.199219 107.371094 C 45.390625 108.855469 47.363281 110.542969 49.210938 112.433594 C 49.324219 112.550781 49.734375 112.414062 49.601562 112.253906 C 47.988281 110.230469 45.867188 108.597656 43.738281 107.148438 Z M 57.628906 112.371094 C 58.492188 111.105469 59.269531 109.78125 60.085938 108.484375 C 60.910156 107.175781 61.742188 105.863281 62.574219 104.558594 C 64.246094 101.949219 65.933594 99.347656 67.640625 96.757812 C 71.035156 91.609375 74.496094 86.503906 78.015625 81.441406 C 79.984375 78.613281 81.9375 75.773438 83.84375 72.90625 C 83.941406 72.753906 83.609375 72.738281 83.535156 72.839844 C 79.703125 77.738281 76.15625 82.859375 72.644531 87.992188 C 69.183594 93.050781 65.808594 98.171875 62.496094 103.328125 C 61.554688 104.800781 60.613281 106.277344 59.679688 107.757812 C 58.75 109.230469 57.769531 110.691406 56.917969 112.210938 C 56.710938 112.582031 57.464844 112.613281 57.628906 112.371094 Z M 63.109375 52.171875 C 65.832031 55.019531 68.152344 58.25 69.964844 61.75 C 70.460938 62.707031 70.917969 63.683594 71.339844 64.679688 C 71.777344 65.714844 72.152344 66.769531 72.613281 67.792969 C 72.671875 67.917969 73.085938 67.8125 73.058594 67.675781 C 72.652344 65.738281 71.773438 63.871094 70.894531 62.109375 C 70.03125 60.382812 69.042969 58.71875 67.949219 57.128906 C 65.710938 53.871094 63.007812 50.929688 59.9375 48.4375 C 58.210938 47.035156 56.371094 45.746094 54.390625 44.734375 C 54.289062 44.683594 53.886719 44.851562 53.996094 44.921875 C 57.285156 47.035156 60.394531 49.332031 63.109375 52.171875 Z M 53.808594 48.925781 C 54.621094 49.542969 55.417969 50.1875 56.191406 50.851562 C 57.753906 52.183594 59.242188 53.605469 60.640625 55.109375 C 63.433594 58.105469 65.882812 61.417969 67.925781 64.972656 C 69.074219 66.960938 70.03125 69.039062 71.050781 71.097656 C 71.101562 71.207031 71.511719 71.089844 71.476562 70.984375 C 70.808594 69.023438 69.863281 67.164062 68.855469 65.359375 C 67.859375 63.574219 66.757812 61.847656 65.566406 60.191406 C 63.140625 56.824219 60.335938 53.726562 57.199219 51.003906 C 56.332031 50.253906 55.445312 49.527344 54.527344 48.835938 C 53.519531 48.078125 52.488281 47.398438 51.261719 47.050781 C 51.175781 47.027344 50.808594 47.160156 50.949219 47.214844 C 51.984375 47.613281 52.925781 48.257812 53.808594 48.925781 Z M 53.375 53.464844 C 54.984375 54.746094 56.5 56.140625 57.910156 57.640625 C 60.746094 60.652344 63.15625 64.070312 65.019531 67.765625 C 66.0625 69.835938 66.925781 71.992188 67.652344 74.191406 C 67.710938 74.355469 68.144531 74.238281 68.097656 74.070312 C 66.953125 70.089844 65.078125 66.316406 62.765625 62.890625 C 60.433594 59.433594 57.597656 56.308594 54.375 53.660156 C 52.585938 52.195312 50.65625 50.746094 48.570312 49.730469 C 48.460938 49.671875 48.085938 49.8125 48.261719 49.929688 C 49.988281 51.09375 51.742188 52.171875 53.375 53.464844 Z M 46.144531 54.539062 C 47.207031 54.839844 48.101562 55.484375 48.941406 56.179688 C 49.71875 56.832031 50.480469 57.515625 51.226562 58.207031 C 52.703125 59.570312 54.128906 60.996094 55.484375 62.480469 C 58.15625 65.414062 60.570312 68.597656 62.535156 72.050781 C 63.667969 74.042969 64.597656 76.125 65.507812 78.226562 C 65.574219 78.378906 65.953125 78.28125 65.902344 78.121094 C 64.695312 74.28125 62.53125 70.671875 60.1875 67.425781 C 57.773438 64.089844 54.964844 61.050781 51.921875 58.28125 C 51.085938 57.519531 50.234375 56.769531 49.359375 56.050781 C 48.457031 55.308594 47.496094 54.628906 46.351562 54.324219 C 46.222656 54.285156 45.9375 54.480469 46.144531 54.539062 Z M 58.8125 75.164062 C 59.367188 76.113281 59.890625 77.082031 60.375 78.070312 C 60.863281 79.058594 61.246094 80.109375 61.808594 81.058594 C 61.867188 81.152344 62.300781 81.039062 62.273438 80.933594 C 62.046875 79.972656 61.570312 79.058594 61.140625 78.175781 C 60.714844 77.296875 60.261719 76.429688 59.777344 75.582031 C 58.804688 73.863281 57.71875 72.199219 56.535156 70.625 C 54.199219 67.519531 51.480469 64.707031 48.453125 62.269531 C 46.714844 60.875 44.875 59.65625 42.945312 58.539062 C 42.855469 58.488281 42.535156 58.640625 42.582031 58.671875 C 49.234375 62.722656 54.871094 68.449219 58.8125 75.164062 Z M 58.074219 87.148438 C 57.523438 85.082031 56.730469 83.082031 55.867188 81.125 C 55.023438 79.203125 54.0625 77.328125 52.984375 75.527344 C 50.949219 72.144531 48.445312 69.023438 45.425781 66.464844 C 43.765625 65.054688 41.960938 63.835938 40.019531 62.84375 C 39.894531 62.777344 39.457031 62.960938 39.640625 63.0625 C 46.703125 66.875 51.703125 73.457031 54.992188 80.644531 C 55.984375 82.808594 56.777344 85.050781 57.660156 87.257812 C 57.714844 87.390625 58.109375 87.285156 58.074219 87.148438 Z M 84.269531 76.648438 C 88.90625 77.742188 93.574219 78.644531 98.175781 79.894531 C 102.78125 81.144531 107.332031 82.667969 111.664062 84.675781 C 112.851562 85.230469 114.019531 85.816406 115.167969 86.4375 C 116.363281 87.089844 117.511719 87.816406 118.683594 88.496094 C 118.882812 88.613281 119.453125 88.363281 119.171875 88.164062 C 117.230469 86.792969 115.042969 85.695312 112.90625 84.675781 C 110.765625 83.65625 108.574219 82.75 106.339844 81.945312 C 101.800781 80.304688 97.128906 79.070312 92.414062 78.023438 C 89.765625 77.433594 87.09375 76.878906 84.414062 76.453125 C 84.316406 76.4375 84.097656 76.609375 84.269531 76.648438 Z M 116.449219 91.679688 C 114.300781 90.421875 112.03125 89.347656 109.765625 88.316406 C 107.492188 87.285156 105.175781 86.335938 102.832031 85.472656 C 98.1875 83.765625 93.417969 82.386719 88.574219 81.386719 C 85.828125 80.820312 83.035156 80.324219 80.246094 80.078125 C 80.160156 80.070312 79.933594 80.214844 80.097656 80.242188 C 82.519531 80.648438 84.9375 81.011719 87.347656 81.507812 C 89.746094 82 92.125 82.574219 94.484375 83.226562 C 99.277344 84.558594 103.976562 86.25 108.519531 88.269531 C 111.066406 89.398438 113.527344 90.6875 116.007812 91.949219 C 116.164062 92.027344 116.679688 91.816406 116.449219 91.679688 Z M 111.660156 95.402344 C 109.722656 94.164062 107.59375 93.1875 105.503906 92.21875 C 103.417969 91.253906 101.292969 90.359375 99.144531 89.546875 C 94.839844 87.914062 90.421875 86.566406 85.929688 85.566406 C 83.425781 85.007812 80.902344 84.554688 78.359375 84.203125 C 78.164062 84.175781 77.921875 84.441406 78.207031 84.488281 C 87.179688 85.957031 95.96875 88.53125 104.257812 92.28125 C 106.621094 93.351562 108.898438 94.59375 111.242188 95.699219 C 111.414062 95.777344 111.921875 95.566406 111.660156 95.402344 Z M 111.644531 101.347656 C 107.632812 98.9375 103.359375 96.914062 99.027344 95.148438 C 94.703125 93.386719 90.261719 91.921875 85.738281 90.769531 C 83.121094 90.101562 80.484375 89.574219 77.816406 89.144531 C 77.746094 89.132812 77.460938 89.253906 77.554688 89.269531 C 86.730469 90.996094 95.691406 93.851562 104.109375 97.898438 C 106.472656 99.035156 108.769531 100.285156 111.058594 101.558594 C 111.210938 101.644531 111.734375 101.402344 111.644531 101.347656 Z M 105.652344 105.183594 C 105.726562 105.210938 106.183594 105.085938 106.085938 105 C 105.703125 104.671875 105.242188 104.457031 104.800781 104.226562 C 104.296875 103.957031 103.792969 103.699219 103.285156 103.4375 C 102.3125 102.941406 101.335938 102.457031 100.351562 101.992188 C 98.449219 101.085938 96.53125 100.230469 94.585938 99.425781 C 90.597656 97.769531 86.519531 96.316406 82.371094 95.109375 C 80.027344 94.429688 77.65625 93.773438 75.261719 93.304688 C 75.175781 93.289062 74.808594 93.425781 74.9375 93.460938 C 76.996094 94.023438 79.0625 94.535156 81.113281 95.136719 C 83.175781 95.746094 85.226562 96.402344 87.257812 97.109375 C 91.316406 98.53125 95.300781 100.152344 99.191406 101.984375 C 100.261719 102.488281 101.328125 103.011719 102.386719 103.550781 C 103.449219 104.09375 104.515625 104.78125 105.652344 105.183594 Z M 94.960938 107.460938 C 93.1875 106.621094 91.394531 105.816406 89.589844 105.042969 C 86.113281 103.550781 82.585938 102.113281 78.90625 101.199219 C 76.871094 100.695312 74.769531 100.328125 72.667969 100.359375 C 72.546875 100.359375 72.316406 100.527344 72.542969 100.546875 C 74.390625 100.734375 76.230469 100.992188 78.039062 101.425781 C 79.871094 101.863281 81.667969 102.441406 83.433594 103.09375 C 86.960938 104.394531 90.421875 105.910156 93.832031 107.503906 C 95.796875 108.417969 97.707031 109.46875 99.691406 110.335938 C 99.84375 110.40625 100.394531 110.207031 100.140625 110.054688 C 98.492188 109.0625 96.695312 108.277344 94.960938 107.460938 Z M 87.84375 70.886719 C 92.101562 71.285156 96.335938 71.804688 100.53125 72.664062 C 104.707031 73.519531 108.828125 74.65625 112.847656 76.070312 C 115.121094 76.867188 117.328125 77.824219 119.585938 78.648438 C 119.734375 78.699219 120.152344 78.476562 119.925781 78.359375 C 118.054688 77.382812 116.042969 76.648438 114.058594 75.933594 C 112.03125 75.203125 109.976562 74.542969 107.898438 73.953125 C 103.769531 72.785156 99.554688 71.898438 95.300781 71.316406 C 92.871094 70.984375 90.417969 70.734375 87.964844 70.65625 C 87.816406 70.648438 87.601562 70.867188 87.84375 70.886719 Z M 90.292969 67.445312 C 94.886719 66.988281 99.484375 67.847656 103.976562 68.746094 C 108.335938 69.621094 112.664062 70.691406 116.933594 71.949219 C 118.117188 72.300781 119.300781 72.664062 120.480469 73.042969 C 121.710938 73.441406 122.921875 73.90625 124.164062 74.261719 C 124.285156 74.296875 124.75 74.121094 124.691406 74.046875 C 124.699219 74.042969 124.703125 74.042969 124.707031 74.042969 C 123.679688 73.609375 122.585938 73.292969 121.527344 72.949219 C 120.441406 72.601562 119.355469 72.257812 118.261719 71.933594 C 116.050781 71.273438 113.832031 70.660156 111.59375 70.105469 C 107.160156 69.007812 102.652344 68.011719 98.117188 67.433594 C 95.578125 67.105469 93.011719 66.972656 90.46875 67.292969 C 90.371094 67.304688 90.03125 67.46875 90.292969 67.445312 Z M 106.804688 65.789062 C 111.320312 66.6875 115.777344 67.886719 120.121094 69.410156 C 121.335938 69.832031 122.542969 70.285156 123.738281 70.757812 C 124.992188 71.253906 126.230469 71.871094 127.515625 72.277344 C 127.613281 72.308594 128.074219 72.15625 128 72.109375 C 127.023438 71.5 125.851562 71.121094 124.78125 70.691406 C 123.714844 70.265625 122.640625 69.863281 121.558594 69.476562 C 119.382812 68.703125 117.179688 68.003906 114.953125 67.386719 C 110.429688 66.128906 105.8125 65.214844 101.152344 64.625 C 98.566406 64.300781 95.960938 64.042969 93.355469 63.984375 C 93.296875 63.984375 93.039062 64.097656 93.117188 64.101562 C 97.714844 64.441406 102.273438 64.890625 106.804688 65.789062 Z M 93.855469 60.800781 C 103.222656 60.878906 112.570312 62.066406 121.628906 64.460938 C 122.910156 64.800781 124.179688 65.160156 125.441406 65.546875 C 126.714844 65.933594 127.96875 66.382812 129.246094 66.753906 C 129.351562 66.785156 129.824219 66.617188 129.652344 66.550781 C 128.527344 66.09375 127.347656 65.753906 126.1875 65.398438 C 125.066406 65.054688 123.933594 64.730469 122.800781 64.421875 C 120.527344 63.804688 118.238281 63.265625 115.9375 62.796875 C 111.359375 61.867188 106.714844 61.226562 102.058594 60.902344 C 99.382812 60.714844 96.710938 60.636719 94.027344 60.664062 C 93.960938 60.664062 93.695312 60.800781 93.855469 60.800781 Z M 93.855469 60.800781 " fill-opacity="1" fill-rule="nonzero"/><path fill="#ff55b2" d="M 99.492188 54.828125 C 97.414062 58.230469 89.390625 71.386719 86.273438 77.007812 C 83.191406 82.566406 76.628906 99.898438 74.808594 104.761719 C 74.660156 105.152344 74.097656 105.117188 73.996094 104.710938 L 73.296875 101.925781 L 71.113281 104.222656 C 70.855469 104.492188 70.410156 104.25 70.496094 103.890625 C 71.230469 100.832031 73.476562 92.632812 78.519531 82.863281 C 84.273438 71.710938 93.148438 58.199219 94.902344 55.558594 C 95.109375 55.242188 95.40625 55.003906 95.757812 54.867188 C 96.984375 54.402344 98.203125 54.1875 99.015625 54.089844 C 99.421875 54.042969 99.703125 54.480469 99.492188 54.828125 Z M 99.492188 54.828125 " fill-opacity="1" fill-rule="nonzero"/><path fill="#ffb600" d="M 70.9375 28.515625 C 74.804688 31.019531 85.214844 38.914062 87.0625 52.351562 C 87.128906 52.847656 87 53.34375 86.714844 53.753906 C 85.625 55.3125 82.75 59.417969 80.671875 62.375 L 79.871094 63.519531 C 78.929688 64.859375 76.871094 64.585938 76.320312 63.046875 C 74.84375 58.929688 71.871094 52.449219 66.671875 48.058594 C 62.851562 44.832031 60.648438 43.050781 59.382812 42.0625 C 58.496094 41.371094 58.347656 40.082031 59.058594 39.207031 C 60.808594 37.042969 63.832031 33.359375 65.246094 32 C 66.382812 30.90625 67.558594 29.691406 68.382812 28.824219 C 69.050781 28.117188 70.121094 27.988281 70.9375 28.515625 Z M 70.9375 28.515625 " fill-opacity="1" fill-rule="nonzero"/><g fill="#fe95f6" fill-opacity="0.4"><g transform="translate(164.479367, 153.542634)"><g><path d="M 6.828125 -41.375 L 5.53125 -41.109375 C 5.03125 -42.953125 4.710938 -44.734375 4.578125 -46.453125 C 4.453125 -48.179688 4.632812 -49.632812 5.125 -50.8125 C 5.613281 -52 6.515625 -52.726562 7.828125 -53 C 9.023438 -53.25 9.976562 -53.046875 10.6875 -52.390625 C 11.394531 -51.734375 11.882812 -50.722656 12.15625 -49.359375 C 12.707031 -46.679688 12.664062 -44.285156 12.03125 -42.171875 L 10.859375 -42.046875 C 12.992188 -43.335938 15.503906 -44.28125 18.390625 -44.875 C 20.210938 -45.25 21.734375 -45.191406 22.953125 -44.703125 C 24.179688 -44.222656 24.96875 -43.15625 25.3125 -41.5 C 25.632812 -39.925781 25.238281 -38.601562 24.125 -37.53125 C 23.019531 -36.457031 21.507812 -35.726562 19.59375 -35.34375 C 18.445312 -35.101562 17.210938 -34.90625 15.890625 -34.75 C 14.578125 -34.601562 13.28125 -34.523438 12 -34.515625 L 12.8125 -36.09375 C 13.53125 -34.550781 14.273438 -32.785156 15.046875 -30.796875 C 15.828125 -28.816406 16.59375 -26.75 17.34375 -24.59375 C 18.09375 -22.445312 18.765625 -20.347656 19.359375 -18.296875 C 19.960938 -16.253906 20.429688 -14.40625 20.765625 -12.75 C 21.328125 -10.03125 21.34375 -7.796875 20.8125 -6.046875 C 20.28125 -4.296875 19.1875 -3.253906 17.53125 -2.921875 C 16.21875 -2.648438 15.109375 -2.84375 14.203125 -3.5 C 13.296875 -4.164062 12.550781 -5.085938 11.96875 -6.265625 C 11.394531 -7.453125 10.9375 -8.71875 10.59375 -10.0625 C 10.25 -11.414062 9.960938 -12.644531 9.734375 -13.75 C 9.359375 -15.613281 9.007812 -17.738281 8.6875 -20.125 C 8.375 -22.519531 8.125 -25.003906 7.9375 -27.578125 C 7.75 -30.160156 7.625 -32.660156 7.5625 -35.078125 L 9.078125 -34.265625 C 7.128906 -32.710938 4.5625 -31.613281 1.375 -30.96875 C -0.582031 -30.5625 -2.164062 -30.609375 -3.375 -31.109375 C -4.59375 -31.617188 -5.359375 -32.640625 -5.671875 -34.171875 C -6.003906 -35.835938 -5.664062 -37.242188 -4.65625 -38.390625 C -3.65625 -39.546875 -2.15625 -40.332031 -0.15625 -40.75 C 1.15625 -41.007812 2.410156 -41.1875 3.609375 -41.28125 C 4.804688 -41.375 5.878906 -41.40625 6.828125 -41.375 Z M 6.828125 -41.375 "/></g></g></g><g fill="#fe95f6" fill-opacity="0.4"><g transform="translate(196.221627, 146.824581)"><g><path d="M 32.265625 -3.03125 C 30.796875 -2.863281 29.726562 -3.320312 29.0625 -4.40625 C 28.394531 -5.488281 27.875 -7.273438 27.5 -9.765625 L 28.171875 -9.515625 C 26.296875 -4.535156 22.003906 -1.660156 15.296875 -0.890625 C 12.234375 -0.546875 9.625 -0.804688 7.46875 -1.671875 C 5.3125 -2.535156 3.644531 -3.828125 2.46875 -5.546875 C 1.289062 -7.273438 0.578125 -9.210938 0.328125 -11.359375 C -0.0976562 -15.066406 0.851562 -18.15625 3.1875 -20.625 C 5.53125 -23.101562 8.832031 -24.585938 13.09375 -25.078125 C 15.90625 -25.390625 18.390625 -25.253906 20.546875 -24.671875 C 22.703125 -24.097656 24.601562 -23.160156 26.25 -21.859375 L 25.125 -21.875 C 24.332031 -26.1875 23.039062 -29.1875 21.25 -30.875 C 19.457031 -32.570312 17.117188 -33.253906 14.234375 -32.921875 C 12.554688 -32.734375 11.035156 -32.300781 9.671875 -31.625 C 8.304688 -30.945312 7.0625 -30.269531 5.9375 -29.59375 C 4.820312 -28.914062 3.75 -28.515625 2.71875 -28.390625 C 1.675781 -28.273438 0.820312 -28.53125 0.15625 -29.15625 C -0.5 -29.78125 -0.882812 -30.632812 -1 -31.71875 C -1.175781 -33.269531 -0.601562 -34.816406 0.71875 -36.359375 C 2.039062 -37.910156 3.878906 -39.257812 6.234375 -40.40625 C 8.597656 -41.550781 11.222656 -42.289062 14.109375 -42.625 C 17.597656 -43.019531 20.6875 -42.519531 23.375 -41.125 C 26.070312 -39.726562 28.253906 -37.488281 29.921875 -34.40625 C 31.347656 -31.769531 32.492188 -28.773438 33.359375 -25.421875 C 34.234375 -22.078125 34.894531 -18.46875 35.34375 -14.59375 C 35.675781 -11.65625 35.78125 -9.367188 35.65625 -7.734375 C 35.53125 -6.109375 35.191406 -4.945312 34.640625 -4.25 C 34.097656 -3.550781 33.304688 -3.144531 32.265625 -3.03125 Z M 17.140625 -8.640625 C 18.578125 -8.804688 20.003906 -9.175781 21.421875 -9.75 C 22.835938 -10.332031 23.992188 -11.085938 24.890625 -12.015625 C 25.785156 -12.953125 26.160156 -14.023438 26.015625 -15.234375 C 25.898438 -16.265625 25.382812 -17.0625 24.46875 -17.625 C 23.550781 -18.195312 22.394531 -18.578125 21 -18.765625 C 19.601562 -18.960938 18.128906 -18.972656 16.578125 -18.796875 C 13.953125 -18.492188 12.015625 -17.8125 10.765625 -16.75 C 9.515625 -15.6875 8.972656 -14.40625 9.140625 -12.90625 C 9.328125 -11.257812 10.101562 -10.066406 11.46875 -9.328125 C 12.84375 -8.597656 14.734375 -8.367188 17.140625 -8.640625 Z M 17.140625 -8.640625 "/></g></g></g><g fill="#fe95f6" fill-opacity="0.4"><g transform="translate(235.151025, 142.69465)"><g><path d="M 7.421875 -50.296875 C 9.160156 -50.367188 10.429688 -49.945312 11.234375 -49.03125 C 12.035156 -48.113281 12.46875 -47.023438 12.53125 -45.765625 C 12.601562 -44.203125 12.191406 -42.976562 11.296875 -42.09375 C 10.398438 -41.207031 9.101562 -40.726562 7.40625 -40.65625 C 5.769531 -40.570312 4.519531 -40.976562 3.65625 -41.875 C 2.789062 -42.769531 2.328125 -43.84375 2.265625 -45.09375 C 2.191406 -46.75 2.632812 -48.007812 3.59375 -48.875 C 4.550781 -49.75 5.828125 -50.222656 7.421875 -50.296875 Z M 8.46875 -35.8125 C 9.863281 -35.875 11.019531 -34.625 11.9375 -32.0625 C 12.863281 -29.5 13.453125 -25.378906 13.703125 -19.703125 C 14.015625 -12.722656 13.738281 -7.671875 12.875 -4.546875 C 12.019531 -1.421875 10.570312 0.179688 8.53125 0.265625 C 6.988281 0.335938 5.796875 -0.742188 4.953125 -2.984375 C 4.109375 -5.234375 3.5625 -9.191406 3.3125 -14.859375 C 2.988281 -21.828125 3.328125 -27.039062 4.328125 -30.5 C 5.328125 -33.957031 6.707031 -35.726562 8.46875 -35.8125 Z M 8.46875 -35.8125 "/></g></g></g><g fill="#fe95f6" fill-opacity="0.4"><g transform="translate(252.589271, 141.838827)"><g><path d="M 11 0.15625 C 9.65625 0.144531 8.59375 -0.171875 7.8125 -0.796875 C 7.03125 -1.421875 6.40625 -2.472656 5.9375 -3.953125 C 5.28125 -6.117188 4.796875 -8.859375 4.484375 -12.171875 C 4.171875 -15.492188 4.019531 -19.585938 4.03125 -24.453125 C 4.039062 -27.441406 4.164062 -30.441406 4.40625 -33.453125 C 4.65625 -36.472656 4.976562 -39.226562 5.375 -41.71875 C 5.769531 -44.21875 6.1875 -46.160156 6.625 -47.546875 C 7.101562 -49.015625 7.664062 -50.03125 8.3125 -50.59375 C 8.96875 -51.164062 9.707031 -51.445312 10.53125 -51.4375 C 11.40625 -51.4375 12.097656 -51.140625 12.609375 -50.546875 C 13.128906 -49.960938 13.546875 -48.9375 13.859375 -47.46875 C 14.109375 -46.03125 14.304688 -44.269531 14.453125 -42.1875 C 14.597656 -40.113281 14.671875 -37.882812 14.671875 -35.5 C 14.660156 -32.238281 14.492188 -28.804688 14.171875 -25.203125 C 13.859375 -21.609375 13.453125 -18.078125 12.953125 -14.609375 C 12.453125 -11.140625 11.847656 -7.953125 11.140625 -5.046875 L 9.3125 -5.96875 C 10.445312 -7.34375 11.742188 -8.421875 13.203125 -9.203125 C 14.660156 -9.984375 15.992188 -10.367188 17.203125 -10.359375 C 18.203125 -10.359375 18.96875 -10.085938 19.5 -9.546875 C 20.039062 -9.003906 20.3125 -8.171875 20.3125 -7.046875 C 20.3125 -5.921875 19.820312 -4.789062 18.84375 -3.65625 C 17.863281 -2.53125 16.65625 -1.613281 15.21875 -0.90625 C 13.789062 -0.195312 12.382812 0.15625 11 0.15625 Z M 11 0.15625 "/></g></g></g><g fill="#fe95f6" fill-opacity="0.4"><g transform="translate(273.183656, 141.485298)"><g><path d="M 19.703125 1.6875 C 16.242188 1.425781 13.285156 0.429688 10.828125 -1.296875 C 8.378906 -3.023438 6.5625 -5.367188 5.375 -8.328125 C 4.1875 -11.296875 3.742188 -14.742188 4.046875 -18.671875 C 4.359375 -22.773438 5.34375 -26.3125 7 -29.28125 C 8.65625 -32.25 10.851562 -34.5 13.59375 -36.03125 C 16.34375 -37.5625 19.445312 -38.195312 22.90625 -37.9375 C 26.625 -37.65625 29.785156 -36.578125 32.390625 -34.703125 C 34.992188 -32.828125 36.9375 -30.335938 38.21875 -27.234375 C 39.507812 -24.128906 40.003906 -20.585938 39.703125 -16.609375 C 39.398438 -12.554688 38.378906 -9.113281 36.640625 -6.28125 C 34.898438 -3.457031 32.582031 -1.351562 29.6875 0.03125 C 26.789062 1.425781 23.460938 1.976562 19.703125 1.6875 Z M 21.28125 -6.984375 C 23.957031 -6.785156 26.164062 -7.695312 27.90625 -9.71875 C 29.65625 -11.738281 30.664062 -14.519531 30.9375 -18.0625 C 31.207031 -21.65625 30.628906 -24.570312 29.203125 -26.8125 C 27.785156 -29.050781 25.738281 -30.269531 23.0625 -30.46875 C 20.300781 -30.6875 18.039062 -29.796875 16.28125 -27.796875 C 14.519531 -25.796875 13.503906 -23 13.234375 -19.40625 C 12.960938 -15.863281 13.546875 -12.960938 14.984375 -10.703125 C 16.421875 -8.441406 18.519531 -7.203125 21.28125 -6.984375 Z M 21.28125 -6.984375 "/></g></g></g><g fill="#fe95f6" fill-opacity="0.4"><g transform="translate(312.080465, 144.580197)"><g><path d="M 8.59375 -28.34375 C 9.257812 -32.457031 10.125 -35.359375 11.1875 -37.046875 C 12.25 -38.742188 13.484375 -39.476562 14.890625 -39.25 C 16.015625 -39.070312 16.820312 -38.472656 17.3125 -37.453125 C 17.800781 -36.429688 18.085938 -35.21875 18.171875 -33.8125 C 18.253906 -32.40625 18.179688 -31.019531 17.953125 -29.65625 L 17.671875 -29.84375 C 18.765625 -32.03125 20.203125 -33.835938 21.984375 -35.265625 C 23.773438 -36.703125 25.742188 -37.242188 27.890625 -36.890625 C 30.410156 -36.484375 32.101562 -35.144531 32.96875 -32.875 C 33.832031 -30.601562 34.015625 -27.925781 33.515625 -24.84375 C 32.859375 -20.738281 31.925781 -17.945312 30.71875 -16.46875 C 29.519531 -14.988281 28.128906 -14.378906 26.546875 -14.640625 C 25.390625 -14.828125 24.617188 -15.429688 24.234375 -16.453125 C 23.847656 -17.472656 23.929688 -19.171875 24.484375 -21.546875 C 25.078125 -24.046875 25.210938 -25.828125 24.890625 -26.890625 C 24.578125 -27.960938 23.90625 -28.578125 22.875 -28.734375 C 21.644531 -28.941406 20.507812 -28.328125 19.46875 -26.890625 C 18.425781 -25.453125 17.722656 -23.597656 17.359375 -21.328125 C 17.210938 -20.429688 17.128906 -19.28125 17.109375 -17.875 C 17.097656 -16.46875 17.09375 -14.941406 17.09375 -13.296875 C 17.101562 -11.648438 17.085938 -10.015625 17.046875 -8.390625 C 17.003906 -6.773438 16.875 -5.304688 16.65625 -3.984375 C 16.28125 -1.628906 15.644531 0 14.75 0.90625 C 13.851562 1.820312 12.742188 2.175781 11.421875 1.96875 C 9.910156 1.726562 8.820312 1.0625 8.15625 -0.03125 C 7.5 -1.125 7.140625 -2.796875 7.078125 -5.046875 C 7.046875 -7.078125 7.078125 -9.46875 7.171875 -12.21875 C 7.265625 -14.976562 7.429688 -17.785156 7.671875 -20.640625 C 7.921875 -23.503906 8.226562 -26.070312 8.59375 -28.34375 Z M 8.59375 -28.34375 "/></g></g></g><g fill="#8c52ff" fill-opacity="1"><g transform="translate(161.538603, 150.733533)"><g><path d="M 6.828125 -41.375 L 5.53125 -41.109375 C 5.03125 -42.953125 4.710938 -44.734375 4.578125 -46.453125 C 4.453125 -48.179688 4.632812 -49.632812 5.125 -50.8125 C 5.613281 -52 6.515625 -52.726562 7.828125 -53 C 9.023438 -53.25 9.976562 -53.046875 10.6875 -52.390625 C 11.394531 -51.734375 11.882812 -50.722656 12.15625 -49.359375 C 12.707031 -46.679688 12.664062 -44.285156 12.03125 -42.171875 L 10.859375 -42.046875 C 12.992188 -43.335938 15.503906 -44.28125 18.390625 -44.875 C 20.210938 -45.25 21.734375 -45.191406 22.953125 -44.703125 C 24.179688 -44.222656 24.96875 -43.15625 25.3125 -41.5 C 25.632812 -39.925781 25.238281 -38.601562 24.125 -37.53125 C 23.019531 -36.457031 21.507812 -35.726562 19.59375 -35.34375 C 18.445312 -35.101562 17.210938 -34.90625 15.890625 -34.75 C 14.578125 -34.601562 13.28125 -34.523438 12 -34.515625 L 12.8125 -36.09375 C 13.53125 -34.550781 14.273438 -32.785156 15.046875 -30.796875 C 15.828125 -28.816406 16.59375 -26.75 17.34375 -24.59375 C 18.09375 -22.445312 18.765625 -20.347656 19.359375 -18.296875 C 19.960938 -16.253906 20.429688 -14.40625 20.765625 -12.75 C 21.328125 -10.03125 21.34375 -7.796875 20.8125 -6.046875 C 20.28125 -4.296875 19.1875 -3.253906 17.53125 -2.921875 C 16.21875 -2.648438 15.109375 -2.84375 14.203125 -3.5 C 13.296875 -4.164062 12.550781 -5.085938 11.96875 -6.265625 C 11.394531 -7.453125 10.9375 -8.71875 10.59375 -10.0625 C 10.25 -11.414062 9.960938 -12.644531 9.734375 -13.75 C 9.359375 -15.613281 9.007812 -17.738281 8.6875 -20.125 C 8.375 -22.519531 8.125 -25.003906 7.9375 -27.578125 C 7.75 -30.160156 7.625 -32.660156 7.5625 -35.078125 L 9.078125 -34.265625 C 7.128906 -32.710938 4.5625 -31.613281 1.375 -30.96875 C -0.582031 -30.5625 -2.164062 -30.609375 -3.375 -31.109375 C -4.59375 -31.617188 -5.359375 -32.640625 -5.671875 -34.171875 C -6.003906 -35.835938 -5.664062 -37.242188 -4.65625 -38.390625 C -3.65625 -39.546875 -2.15625 -40.332031 -0.15625 -40.75 C 1.15625 -41.007812 2.410156 -41.1875 3.609375 -41.28125 C 4.804688 -41.375 5.878906 -41.40625 6.828125 -41.375 Z M 6.828125 -41.375 "/></g></g></g><g fill="#8c52ff" fill-opacity="1"><g transform="translate(193.280865, 144.01548)"><g><path d="M 32.265625 -3.03125 C 30.796875 -2.863281 29.726562 -3.320312 29.0625 -4.40625 C 28.394531 -5.488281 27.875 -7.273438 27.5 -9.765625 L 28.171875 -9.515625 C 26.296875 -4.535156 22.003906 -1.660156 15.296875 -0.890625 C 12.234375 -0.546875 9.625 -0.804688 7.46875 -1.671875 C 5.3125 -2.535156 3.644531 -3.828125 2.46875 -5.546875 C 1.289062 -7.273438 0.578125 -9.210938 0.328125 -11.359375 C -0.0976562 -15.066406 0.851562 -18.15625 3.1875 -20.625 C 5.53125 -23.101562 8.832031 -24.585938 13.09375 -25.078125 C 15.90625 -25.390625 18.390625 -25.253906 20.546875 -24.671875 C 22.703125 -24.097656 24.601562 -23.160156 26.25 -21.859375 L 25.125 -21.875 C 24.332031 -26.1875 23.039062 -29.1875 21.25 -30.875 C 19.457031 -32.570312 17.117188 -33.253906 14.234375 -32.921875 C 12.554688 -32.734375 11.035156 -32.300781 9.671875 -31.625 C 8.304688 -30.945312 7.0625 -30.269531 5.9375 -29.59375 C 4.820312 -28.914062 3.75 -28.515625 2.71875 -28.390625 C 1.675781 -28.273438 0.820312 -28.53125 0.15625 -29.15625 C -0.5 -29.78125 -0.882812 -30.632812 -1 -31.71875 C -1.175781 -33.269531 -0.601562 -34.816406 0.71875 -36.359375 C 2.039062 -37.910156 3.878906 -39.257812 6.234375 -40.40625 C 8.597656 -41.550781 11.222656 -42.289062 14.109375 -42.625 C 17.597656 -43.019531 20.6875 -42.519531 23.375 -41.125 C 26.070312 -39.726562 28.253906 -37.488281 29.921875 -34.40625 C 31.347656 -31.769531 32.492188 -28.773438 33.359375 -25.421875 C 34.234375 -22.078125 34.894531 -18.46875 35.34375 -14.59375 C 35.675781 -11.65625 35.78125 -9.367188 35.65625 -7.734375 C 35.53125 -6.109375 35.191406 -4.945312 34.640625 -4.25 C 34.097656 -3.550781 33.304688 -3.144531 32.265625 -3.03125 Z M 17.140625 -8.640625 C 18.578125 -8.804688 20.003906 -9.175781 21.421875 -9.75 C 22.835938 -10.332031 23.992188 -11.085938 24.890625 -12.015625 C 25.785156 -12.953125 26.160156 -14.023438 26.015625 -15.234375 C 25.898438 -16.265625 25.382812 -17.0625 24.46875 -17.625 C 23.550781 -18.195312 22.394531 -18.578125 21 -18.765625 C 19.601562 -18.960938 18.128906 -18.972656 16.578125 -18.796875 C 13.953125 -18.492188 12.015625 -17.8125 10.765625 -16.75 C 9.515625 -15.6875 8.972656 -14.40625 9.140625 -12.90625 C 9.328125 -11.257812 10.101562 -10.066406 11.46875 -9.328125 C 12.84375 -8.597656 14.734375 -8.367188 17.140625 -8.640625 Z M 17.140625 -8.640625 "/></g></g></g><g fill="#8c52ff" fill-opacity="1"><g transform="translate(232.210247, 139.885555)"><g><path d="M 7.421875 -50.296875 C 9.160156 -50.367188 10.429688 -49.945312 11.234375 -49.03125 C 12.035156 -48.113281 12.46875 -47.023438 12.53125 -45.765625 C 12.601562 -44.203125 12.191406 -42.976562 11.296875 -42.09375 C 10.398438 -41.207031 9.101562 -40.726562 7.40625 -40.65625 C 5.769531 -40.570312 4.519531 -40.976562 3.65625 -41.875 C 2.789062 -42.769531 2.328125 -43.84375 2.265625 -45.09375 C 2.191406 -46.75 2.632812 -48.007812 3.59375 -48.875 C 4.550781 -49.75 5.828125 -50.222656 7.421875 -50.296875 Z M 8.46875 -35.8125 C 9.863281 -35.875 11.019531 -34.625 11.9375 -32.0625 C 12.863281 -29.5 13.453125 -25.378906 13.703125 -19.703125 C 14.015625 -12.722656 13.738281 -7.671875 12.875 -4.546875 C 12.019531 -1.421875 10.570312 0.179688 8.53125 0.265625 C 6.988281 0.335938 5.796875 -0.742188 4.953125 -2.984375 C 4.109375 -5.234375 3.5625 -9.191406 3.3125 -14.859375 C 2.988281 -21.828125 3.328125 -27.039062 4.328125 -30.5 C 5.328125 -33.957031 6.707031 -35.726562 8.46875 -35.8125 Z M 8.46875 -35.8125 "/></g></g></g><g fill="#8c52ff" fill-opacity="1"><g transform="translate(249.648524, 139.029727)"><g><path d="M 11 0.15625 C 9.65625 0.144531 8.59375 -0.171875 7.8125 -0.796875 C 7.03125 -1.421875 6.40625 -2.472656 5.9375 -3.953125 C 5.28125 -6.117188 4.796875 -8.859375 4.484375 -12.171875 C 4.171875 -15.492188 4.019531 -19.585938 4.03125 -24.453125 C 4.039062 -27.441406 4.164062 -30.441406 4.40625 -33.453125 C 4.65625 -36.472656 4.976562 -39.226562 5.375 -41.71875 C 5.769531 -44.21875 6.1875 -46.160156 6.625 -47.546875 C 7.101562 -49.015625 7.664062 -50.03125 8.3125 -50.59375 C 8.96875 -51.164062 9.707031 -51.445312 10.53125 -51.4375 C 11.40625 -51.4375 12.097656 -51.140625 12.609375 -50.546875 C 13.128906 -49.960938 13.546875 -48.9375 13.859375 -47.46875 C 14.109375 -46.03125 14.304688 -44.269531 14.453125 -42.1875 C 14.597656 -40.113281 14.671875 -37.882812 14.671875 -35.5 C 14.660156 -32.238281 14.492188 -28.804688 14.171875 -25.203125 C 13.859375 -21.609375 13.453125 -18.078125 12.953125 -14.609375 C 12.453125 -11.140625 11.847656 -7.953125 11.140625 -5.046875 L 9.3125 -5.96875 C 10.445312 -7.34375 11.742188 -8.421875 13.203125 -9.203125 C 14.660156 -9.984375 15.992188 -10.367188 17.203125 -10.359375 C 18.203125 -10.359375 18.96875 -10.085938 19.5 -9.546875 C 20.039062 -9.003906 20.3125 -8.171875 20.3125 -7.046875 C 20.3125 -5.921875 19.820312 -4.789062 18.84375 -3.65625 C 17.863281 -2.53125 16.65625 -1.613281 15.21875 -0.90625 C 13.789062 -0.195312 12.382812 0.15625 11 0.15625 Z M 11 0.15625 "/></g></g></g><g fill="#8c52ff" fill-opacity="1"><g transform="translate(270.242909, 138.676205)"><g><path d="M 19.703125 1.6875 C 16.242188 1.425781 13.285156 0.429688 10.828125 -1.296875 C 8.378906 -3.023438 6.5625 -5.367188 5.375 -8.328125 C 4.1875 -11.296875 3.742188 -14.742188 4.046875 -18.671875 C 4.359375 -22.773438 5.34375 -26.3125 7 -29.28125 C 8.65625 -32.25 10.851562 -34.5 13.59375 -36.03125 C 16.34375 -37.5625 19.445312 -38.195312 22.90625 -37.9375 C 26.625 -37.65625 29.785156 -36.578125 32.390625 -34.703125 C 34.992188 -32.828125 36.9375 -30.335938 38.21875 -27.234375 C 39.507812 -24.128906 40.003906 -20.585938 39.703125 -16.609375 C 39.398438 -12.554688 38.378906 -9.113281 36.640625 -6.28125 C 34.898438 -3.457031 32.582031 -1.351562 29.6875 0.03125 C 26.789062 1.425781 23.460938 1.976562 19.703125 1.6875 Z M 21.28125 -6.984375 C 23.957031 -6.785156 26.164062 -7.695312 27.90625 -9.71875 C 29.65625 -11.738281 30.664062 -14.519531 30.9375 -18.0625 C 31.207031 -21.65625 30.628906 -24.570312 29.203125 -26.8125 C 27.785156 -29.050781 25.738281 -30.269531 23.0625 -30.46875 C 20.300781 -30.6875 18.039062 -29.796875 16.28125 -27.796875 C 14.519531 -25.796875 13.503906 -23 13.234375 -19.40625 C 12.960938 -15.863281 13.546875 -12.960938 14.984375 -10.703125 C 16.421875 -8.441406 18.519531 -7.203125 21.28125 -6.984375 Z M 21.28125 -6.984375 "/></g></g></g><g fill="#8c52ff" fill-opacity="1"><g transform="translate(309.139687, 141.771104)"><g><path d="M 8.59375 -28.34375 C 9.257812 -32.457031 10.125 -35.359375 11.1875 -37.046875 C 12.25 -38.742188 13.484375 -39.476562 14.890625 -39.25 C 16.015625 -39.070312 16.820312 -38.472656 17.3125 -37.453125 C 17.800781 -36.429688 18.085938 -35.21875 18.171875 -33.8125 C 18.253906 -32.40625 18.179688 -31.019531 17.953125 -29.65625 L 17.671875 -29.84375 C 18.765625 -32.03125 20.203125 -33.835938 21.984375 -35.265625 C 23.773438 -36.703125 25.742188 -37.242188 27.890625 -36.890625 C 30.410156 -36.484375 32.101562 -35.144531 32.96875 -32.875 C 33.832031 -30.601562 34.015625 -27.925781 33.515625 -24.84375 C 32.859375 -20.738281 31.925781 -17.945312 30.71875 -16.46875 C 29.519531 -14.988281 28.128906 -14.378906 26.546875 -14.640625 C 25.390625 -14.828125 24.617188 -15.429688 24.234375 -16.453125 C 23.847656 -17.472656 23.929688 -19.171875 24.484375 -21.546875 C 25.078125 -24.046875 25.210938 -25.828125 24.890625 -26.890625 C 24.578125 -27.960938 23.90625 -28.578125 22.875 -28.734375 C 21.644531 -28.941406 20.507812 -28.328125 19.46875 -26.890625 C 18.425781 -25.453125 17.722656 -23.597656 17.359375 -21.328125 C 17.210938 -20.429688 17.128906 -19.28125 17.109375 -17.875 C 17.097656 -16.46875 17.09375 -14.941406 17.09375 -13.296875 C 17.101562 -11.648438 17.085938 -10.015625 17.046875 -8.390625 C 17.003906 -6.773438 16.875 -5.304688 16.65625 -3.984375 C 16.28125 -1.628906 15.644531 0 14.75 0.90625 C 13.851562 1.820312 12.742188 2.175781 11.421875 1.96875 C 9.910156 1.726562 8.820312 1.0625 8.15625 -0.03125 C 7.5 -1.125 7.140625 -2.796875 7.078125 -5.046875 C 7.046875 -7.078125 7.078125 -9.46875 7.171875 -12.21875 C 7.265625 -14.976562 7.429688 -17.785156 7.671875 -20.640625 C 7.921875 -23.503906 8.226562 -26.070312 8.59375 -28.34375 Z M 8.59375 -28.34375 "/></g></g></g><g fill="#91c4f6" fill-opacity="0.4"><g transform="translate(177.523671, 74.368054)"><g><path d="M 9.65625 -35.921875 C 13.382812 -36.703125 16.207031 -36.613281 18.125 -35.65625 C 20.039062 -34.707031 21.210938 -33.210938 21.640625 -31.171875 C 21.910156 -29.890625 21.707031 -28.742188 21.03125 -27.734375 C 20.363281 -26.734375 19.269531 -26.078125 17.75 -25.765625 C 16.632812 -25.523438 15.410156 -25.453125 14.078125 -25.546875 C 12.742188 -25.648438 11.265625 -25.535156 9.640625 -25.203125 C 8.878906 -25.035156 8.328125 -24.769531 7.984375 -24.40625 C 7.648438 -24.050781 7.53125 -23.648438 7.625 -23.203125 C 7.71875 -22.753906 8.007812 -22.425781 8.5 -22.21875 C 9 -22.019531 10.007812 -21.992188 11.53125 -22.140625 C 14.195312 -22.484375 16.5 -22.535156 18.4375 -22.296875 C 20.382812 -22.054688 21.960938 -21.378906 23.171875 -20.265625 C 24.378906 -19.160156 25.222656 -17.472656 25.703125 -15.203125 C 26.398438 -11.847656 25.660156 -9.144531 23.484375 -7.09375 C 21.304688 -5.039062 17.984375 -3.546875 13.515625 -2.609375 C 10.453125 -1.960938 7.921875 -1.75 5.921875 -1.96875 C 3.921875 -2.1875 2.390625 -2.75 1.328125 -3.65625 C 0.273438 -4.570312 -0.394531 -5.738281 -0.6875 -7.15625 C -0.976562 -8.53125 -0.75 -9.707031 0 -10.6875 C 0.757812 -11.664062 1.757812 -12.285156 3 -12.546875 C 3.800781 -12.710938 4.671875 -12.773438 5.609375 -12.734375 C 6.554688 -12.703125 7.550781 -12.664062 8.59375 -12.625 C 9.644531 -12.59375 10.691406 -12.6875 11.734375 -12.90625 C 13.117188 -13.195312 13.726562 -13.738281 13.5625 -14.53125 C 13.507812 -14.8125 13.378906 -15.046875 13.171875 -15.234375 C 12.960938 -15.429688 12.585938 -15.570312 12.046875 -15.65625 C 11.503906 -15.75 10.707031 -15.738281 9.65625 -15.625 C 7.28125 -15.40625 5.1875 -15.394531 3.375 -15.59375 C 1.570312 -15.789062 0.0820312 -16.367188 -1.09375 -17.328125 C -2.269531 -18.296875 -3.066406 -19.78125 -3.484375 -21.78125 C -4.171875 -25.03125 -3.378906 -27.941406 -1.109375 -30.515625 C 1.160156 -33.085938 4.75 -34.890625 9.65625 -35.921875 Z M 9.65625 -35.921875 "/></g></g></g><g fill="#91c4f6" fill-opacity="0.4"><g transform="translate(204.304754, 68.650156)"><g><path d="M 6.421875 -32.84375 L 5.90625 -32.78125 C 5.550781 -34.300781 5.429688 -35.769531 5.546875 -37.1875 C 5.671875 -38.601562 6.140625 -39.789062 6.953125 -40.75 C 7.765625 -41.71875 9.03125 -42.300781 10.75 -42.5 C 12.5 -42.695312 13.820312 -42.4375 14.71875 -41.71875 C 15.625 -41.007812 16.160156 -39.9375 16.328125 -38.5 C 16.535156 -36.675781 16.289062 -35.066406 15.59375 -33.671875 L 15.15625 -33.734375 C 16.3125 -34.523438 17.625 -35.007812 19.09375 -35.1875 C 20.925781 -35.394531 22.441406 -35.128906 23.640625 -34.390625 C 24.847656 -33.660156 25.570312 -32.265625 25.8125 -30.203125 C 26.03125 -28.273438 25.5625 -26.738281 24.40625 -25.59375 C 23.257812 -24.445312 21.742188 -23.765625 19.859375 -23.546875 C 19.191406 -23.472656 18.472656 -23.4375 17.703125 -23.4375 C 16.941406 -23.4375 16.195312 -23.503906 15.46875 -23.640625 L 15.65625 -24.25 C 16.238281 -23.238281 16.816406 -22.097656 17.390625 -20.828125 C 17.960938 -19.566406 18.492188 -18.242188 18.984375 -16.859375 C 19.484375 -15.484375 19.90625 -14.128906 20.25 -12.796875 C 20.601562 -11.472656 20.84375 -10.28125 20.96875 -9.21875 C 21.21875 -6.976562 20.863281 -5.144531 19.90625 -3.71875 C 18.945312 -2.289062 17.332031 -1.445312 15.0625 -1.1875 C 13.664062 -1.03125 12.460938 -1.144531 11.453125 -1.53125 C 10.441406 -1.914062 9.601562 -2.507812 8.9375 -3.3125 C 8.28125 -4.125 7.757812 -5.117188 7.375 -6.296875 C 7 -7.484375 6.734375 -8.78125 6.578125 -10.1875 C 6.441406 -11.375 6.382812 -12.722656 6.40625 -14.234375 C 6.425781 -15.742188 6.53125 -17.328125 6.71875 -18.984375 C 6.914062 -20.648438 7.195312 -22.253906 7.5625 -23.796875 L 8.25 -22.53125 C 7.226562 -21.5 5.859375 -20.882812 4.140625 -20.6875 C 2.210938 -20.46875 0.648438 -20.773438 -0.546875 -21.609375 C -1.753906 -22.441406 -2.46875 -23.859375 -2.6875 -25.859375 C -2.925781 -27.929688 -2.523438 -29.59375 -1.484375 -30.84375 C -0.441406 -32.101562 1.078125 -32.847656 3.078125 -33.078125 C 3.710938 -33.148438 4.316406 -33.160156 4.890625 -33.109375 C 5.472656 -33.054688 5.984375 -32.96875 6.421875 -32.84375 Z M 6.421875 -32.84375 "/></g></g></g><g fill="#91c4f6" fill-opacity="0.4"><g transform="translate(231.61198, 65.301839)"><g><path d="M 27.390625 -0.65625 C 25.941406 -0.644531 24.820312 -0.960938 24.03125 -1.609375 C 23.238281 -2.253906 22.707031 -3.09375 22.4375 -4.125 C 22.164062 -5.164062 22.019531 -6.269531 22 -7.4375 L 22.265625 -7.640625 C 21.753906 -6.117188 20.96875 -4.800781 19.90625 -3.6875 C 18.84375 -2.582031 17.632812 -1.726562 16.28125 -1.125 C 14.925781 -0.53125 13.5625 -0.222656 12.1875 -0.203125 C 10.101562 -0.171875 8.347656 -0.597656 6.921875 -1.484375 C 5.492188 -2.367188 4.328125 -3.796875 3.421875 -5.765625 C 2.660156 -7.410156 2.039062 -9.625 1.5625 -12.40625 C 1.082031 -15.195312 0.828125 -18.09375 0.796875 -21.09375 C 0.773438 -22.46875 0.816406 -23.726562 0.921875 -24.875 C 1.035156 -26.03125 1.207031 -26.992188 1.4375 -27.765625 C 1.851562 -29.117188 2.554688 -30.117188 3.546875 -30.765625 C 4.546875 -31.410156 5.753906 -31.742188 7.171875 -31.765625 C 8.828125 -31.785156 10.148438 -31.265625 11.140625 -30.203125 C 12.128906 -29.140625 12.71875 -27.65625 12.90625 -25.75 C 13.03125 -24.695312 13.132812 -23.488281 13.21875 -22.125 C 13.3125 -20.769531 13.398438 -19.4375 13.484375 -18.125 C 13.578125 -16.820312 13.664062 -15.691406 13.75 -14.734375 C 13.90625 -13.441406 14.234375 -12.488281 14.734375 -11.875 C 15.234375 -11.257812 15.925781 -10.957031 16.8125 -10.96875 C 17.832031 -10.976562 18.609375 -11.488281 19.140625 -12.5 C 19.679688 -13.519531 19.941406 -14.914062 19.921875 -16.6875 C 19.898438 -17.632812 19.835938 -18.707031 19.734375 -19.90625 C 19.628906 -21.101562 19.535156 -22.273438 19.453125 -23.421875 C 19.378906 -24.566406 19.335938 -25.507812 19.328125 -26.25 C 19.296875 -28.65625 19.738281 -30.375 20.65625 -31.40625 C 21.570312 -32.445312 22.878906 -32.984375 24.578125 -33.015625 C 25.953125 -33.023438 27.140625 -32.742188 28.140625 -32.171875 C 29.140625 -31.609375 29.875 -30.78125 30.34375 -29.6875 C 30.851562 -28.664062 31.296875 -27.273438 31.671875 -25.515625 C 32.046875 -23.753906 32.351562 -21.769531 32.59375 -19.5625 C 32.832031 -17.363281 32.96875 -15.023438 33 -12.546875 C 33.050781 -8.597656 32.664062 -5.632812 31.84375 -3.65625 C 31.019531 -1.6875 29.535156 -0.6875 27.390625 -0.65625 Z M 27.390625 -0.65625 "/></g></g></g><g fill="#91c4f6" fill-opacity="0.4"><g transform="translate(263.869751, 64.801767)"><g><path d="M 11.328125 1.8125 C 8.023438 1.5 5.554688 -0.0351562 3.921875 -2.796875 C 2.285156 -5.554688 1.71875 -9.59375 2.21875 -14.90625 C 2.726562 -20.164062 3.992188 -23.929688 6.015625 -26.203125 C 8.035156 -28.472656 10.695312 -29.453125 14 -29.140625 C 16.070312 -28.941406 17.84375 -28.347656 19.3125 -27.359375 C 20.789062 -26.378906 22.085938 -25.054688 23.203125 -23.390625 L 22.3125 -23.25 C 22.226562 -24.53125 22.15625 -25.894531 22.09375 -27.34375 C 22.039062 -28.789062 22.019531 -30.148438 22.03125 -31.421875 C 22.050781 -32.703125 22.097656 -33.707031 22.171875 -34.4375 C 22.328125 -36.132812 22.835938 -37.410156 23.703125 -38.265625 C 24.566406 -39.117188 25.804688 -39.46875 27.421875 -39.3125 C 29.203125 -39.132812 30.613281 -38.382812 31.65625 -37.0625 C 32.707031 -35.738281 33.398438 -33.820312 33.734375 -31.3125 C 33.941406 -29.8125 34.070312 -27.910156 34.125 -25.609375 C 34.175781 -23.316406 34.160156 -20.921875 34.078125 -18.421875 C 34.003906 -15.929688 33.863281 -13.597656 33.65625 -11.421875 C 33.289062 -7.515625 32.710938 -4.5 31.921875 -2.375 C 31.128906 -0.257812 30.171875 1.1875 29.046875 1.96875 C 27.929688 2.75 26.691406 3.078125 25.328125 2.953125 C 23.703125 2.796875 22.632812 2.144531 22.125 1 C 21.613281 -0.144531 21.4375 -1.957031 21.59375 -4.4375 L 22.65625 -4.34375 C 21.488281 -2.238281 19.929688 -0.628906 17.984375 0.484375 C 16.046875 1.609375 13.828125 2.050781 11.328125 1.8125 Z M 17.546875 -7.046875 C 18.242188 -6.984375 18.910156 -7.148438 19.546875 -7.546875 C 20.191406 -7.953125 20.734375 -8.609375 21.171875 -9.515625 C 21.609375 -10.429688 21.898438 -11.632812 22.046875 -13.125 C 22.222656 -15.019531 22.0625 -16.59375 21.5625 -17.84375 C 21.070312 -19.09375 20.101562 -19.789062 18.65625 -19.9375 C 17.46875 -20.050781 16.460938 -19.613281 15.640625 -18.625 C 14.816406 -17.644531 14.300781 -16.082031 14.09375 -13.9375 C 13.914062 -12.03125 14.140625 -10.429688 14.765625 -9.140625 C 15.390625 -7.859375 16.316406 -7.160156 17.546875 -7.046875 Z M 17.546875 -7.046875 "/></g></g></g><g fill="#91c4f6" fill-opacity="0.4"><g transform="translate(295.290176, 67.706757)"><g><path d="M 6.765625 12.140625 C 3.992188 11.566406 2.9375 9.691406 3.59375 6.515625 C 3.84375 5.265625 4.46875 3.941406 5.46875 2.546875 C 6.476562 1.148438 7.738281 -0.203125 9.25 -1.515625 C 10.757812 -2.835938 12.382812 -3.96875 14.125 -4.90625 L 13.90625 -4.078125 C 10.59375 -8.148438 8.21875 -11.84375 6.78125 -15.15625 C 5.351562 -18.46875 4.9375 -21.597656 5.53125 -24.546875 C 5.976562 -26.722656 6.878906 -28.296875 8.234375 -29.265625 C 9.585938 -30.242188 11.210938 -30.539062 13.109375 -30.15625 C 15.597656 -29.644531 17.457031 -27.8125 18.6875 -24.65625 C 19.925781 -21.507812 20.398438 -17.078125 20.109375 -11.359375 L 20.3125 -11.328125 C 22.132812 -17.078125 24.210938 -21.171875 26.546875 -23.609375 C 28.878906 -26.054688 31.253906 -27.035156 33.671875 -26.546875 C 35.191406 -26.234375 36.253906 -25.523438 36.859375 -24.421875 C 37.472656 -23.328125 37.601562 -21.914062 37.25 -20.1875 C 37.019531 -19.050781 36.5625 -17.726562 35.875 -16.21875 C 35.195312 -14.71875 34.316406 -13.101562 33.234375 -11.375 C 32.160156 -9.65625 30.925781 -7.863281 29.53125 -6 C 28.144531 -4.144531 26.644531 -2.300781 25.03125 -0.46875 C 20.757812 4.3125 17.203125 7.71875 14.359375 9.75 C 11.515625 11.789062 8.984375 12.585938 6.765625 12.140625 Z M 6.765625 12.140625 "/></g></g></g><g fill="#91c4f6" fill-opacity="1"><g transform="translate(175.182624, 72.026998)"><g><path d="M 9.65625 -35.921875 C 13.382812 -36.703125 16.207031 -36.613281 18.125 -35.65625 C 20.039062 -34.707031 21.210938 -33.210938 21.640625 -31.171875 C 21.910156 -29.890625 21.707031 -28.742188 21.03125 -27.734375 C 20.363281 -26.734375 19.269531 -26.078125 17.75 -25.765625 C 16.632812 -25.523438 15.410156 -25.453125 14.078125 -25.546875 C 12.742188 -25.648438 11.265625 -25.535156 9.640625 -25.203125 C 8.878906 -25.035156 8.328125 -24.769531 7.984375 -24.40625 C 7.648438 -24.050781 7.53125 -23.648438 7.625 -23.203125 C 7.71875 -22.753906 8.007812 -22.425781 8.5 -22.21875 C 9 -22.019531 10.007812 -21.992188 11.53125 -22.140625 C 14.195312 -22.484375 16.5 -22.535156 18.4375 -22.296875 C 20.382812 -22.054688 21.960938 -21.378906 23.171875 -20.265625 C 24.378906 -19.160156 25.222656 -17.472656 25.703125 -15.203125 C 26.398438 -11.847656 25.660156 -9.144531 23.484375 -7.09375 C 21.304688 -5.039062 17.984375 -3.546875 13.515625 -2.609375 C 10.453125 -1.960938 7.921875 -1.75 5.921875 -1.96875 C 3.921875 -2.1875 2.390625 -2.75 1.328125 -3.65625 C 0.273438 -4.570312 -0.394531 -5.738281 -0.6875 -7.15625 C -0.976562 -8.53125 -0.75 -9.707031 0 -10.6875 C 0.757812 -11.664062 1.757812 -12.285156 3 -12.546875 C 3.800781 -12.710938 4.671875 -12.773438 5.609375 -12.734375 C 6.554688 -12.703125 7.550781 -12.664062 8.59375 -12.625 C 9.644531 -12.59375 10.691406 -12.6875 11.734375 -12.90625 C 13.117188 -13.195312 13.726562 -13.738281 13.5625 -14.53125 C 13.507812 -14.8125 13.378906 -15.046875 13.171875 -15.234375 C 12.960938 -15.429688 12.585938 -15.570312 12.046875 -15.65625 C 11.503906 -15.75 10.707031 -15.738281 9.65625 -15.625 C 7.28125 -15.40625 5.1875 -15.394531 3.375 -15.59375 C 1.570312 -15.789062 0.0820312 -16.367188 -1.09375 -17.328125 C -2.269531 -18.296875 -3.066406 -19.78125 -3.484375 -21.78125 C -4.171875 -25.03125 -3.378906 -27.941406 -1.109375 -30.515625 C 1.160156 -33.085938 4.75 -34.890625 9.65625 -35.921875 Z M 9.65625 -35.921875 "/></g></g></g><g fill="#91c4f6" fill-opacity="1"><g transform="translate(201.963706, 66.309097)"><g><path d="M 6.421875 -32.84375 L 5.90625 -32.78125 C 5.550781 -34.300781 5.429688 -35.769531 5.546875 -37.1875 C 5.671875 -38.601562 6.140625 -39.789062 6.953125 -40.75 C 7.765625 -41.71875 9.03125 -42.300781 10.75 -42.5 C 12.5 -42.695312 13.820312 -42.4375 14.71875 -41.71875 C 15.625 -41.007812 16.160156 -39.9375 16.328125 -38.5 C 16.535156 -36.675781 16.289062 -35.066406 15.59375 -33.671875 L 15.15625 -33.734375 C 16.3125 -34.523438 17.625 -35.007812 19.09375 -35.1875 C 20.925781 -35.394531 22.441406 -35.128906 23.640625 -34.390625 C 24.847656 -33.660156 25.570312 -32.265625 25.8125 -30.203125 C 26.03125 -28.273438 25.5625 -26.738281 24.40625 -25.59375 C 23.257812 -24.445312 21.742188 -23.765625 19.859375 -23.546875 C 19.191406 -23.472656 18.472656 -23.4375 17.703125 -23.4375 C 16.941406 -23.4375 16.195312 -23.503906 15.46875 -23.640625 L 15.65625 -24.25 C 16.238281 -23.238281 16.816406 -22.097656 17.390625 -20.828125 C 17.960938 -19.566406 18.492188 -18.242188 18.984375 -16.859375 C 19.484375 -15.484375 19.90625 -14.128906 20.25 -12.796875 C 20.601562 -11.472656 20.84375 -10.28125 20.96875 -9.21875 C 21.21875 -6.976562 20.863281 -5.144531 19.90625 -3.71875 C 18.945312 -2.289062 17.332031 -1.445312 15.0625 -1.1875 C 13.664062 -1.03125 12.460938 -1.144531 11.453125 -1.53125 C 10.441406 -1.914062 9.601562 -2.507812 8.9375 -3.3125 C 8.28125 -4.125 7.757812 -5.117188 7.375 -6.296875 C 7 -7.484375 6.734375 -8.78125 6.578125 -10.1875 C 6.441406 -11.375 6.382812 -12.722656 6.40625 -14.234375 C 6.425781 -15.742188 6.53125 -17.328125 6.71875 -18.984375 C 6.914062 -20.648438 7.195312 -22.253906 7.5625 -23.796875 L 8.25 -22.53125 C 7.226562 -21.5 5.859375 -20.882812 4.140625 -20.6875 C 2.210938 -20.46875 0.648438 -20.773438 -0.546875 -21.609375 C -1.753906 -22.441406 -2.46875 -23.859375 -2.6875 -25.859375 C -2.925781 -27.929688 -2.523438 -29.59375 -1.484375 -30.84375 C -0.441406 -32.101562 1.078125 -32.847656 3.078125 -33.078125 C 3.710938 -33.148438 4.316406 -33.160156 4.890625 -33.109375 C 5.472656 -33.054688 5.984375 -32.96875 6.421875 -32.84375 Z M 6.421875 -32.84375 "/></g></g></g><g fill="#91c4f6" fill-opacity="1"><g transform="translate(229.270947, 62.960779)"><g><path d="M 27.390625 -0.65625 C 25.941406 -0.644531 24.820312 -0.960938 24.03125 -1.609375 C 23.238281 -2.253906 22.707031 -3.09375 22.4375 -4.125 C 22.164062 -5.164062 22.019531 -6.269531 22 -7.4375 L 22.265625 -7.640625 C 21.753906 -6.117188 20.96875 -4.800781 19.90625 -3.6875 C 18.84375 -2.582031 17.632812 -1.726562 16.28125 -1.125 C 14.925781 -0.53125 13.5625 -0.222656 12.1875 -0.203125 C 10.101562 -0.171875 8.347656 -0.597656 6.921875 -1.484375 C 5.492188 -2.367188 4.328125 -3.796875 3.421875 -5.765625 C 2.660156 -7.410156 2.039062 -9.625 1.5625 -12.40625 C 1.082031 -15.195312 0.828125 -18.09375 0.796875 -21.09375 C 0.773438 -22.46875 0.816406 -23.726562 0.921875 -24.875 C 1.035156 -26.03125 1.207031 -26.992188 1.4375 -27.765625 C 1.851562 -29.117188 2.554688 -30.117188 3.546875 -30.765625 C 4.546875 -31.410156 5.753906 -31.742188 7.171875 -31.765625 C 8.828125 -31.785156 10.148438 -31.265625 11.140625 -30.203125 C 12.128906 -29.140625 12.71875 -27.65625 12.90625 -25.75 C 13.03125 -24.695312 13.132812 -23.488281 13.21875 -22.125 C 13.3125 -20.769531 13.398438 -19.4375 13.484375 -18.125 C 13.578125 -16.820312 13.664062 -15.691406 13.75 -14.734375 C 13.90625 -13.441406 14.234375 -12.488281 14.734375 -11.875 C 15.234375 -11.257812 15.925781 -10.957031 16.8125 -10.96875 C 17.832031 -10.976562 18.609375 -11.488281 19.140625 -12.5 C 19.679688 -13.519531 19.941406 -14.914062 19.921875 -16.6875 C 19.898438 -17.632812 19.835938 -18.707031 19.734375 -19.90625 C 19.628906 -21.101562 19.535156 -22.273438 19.453125 -23.421875 C 19.378906 -24.566406 19.335938 -25.507812 19.328125 -26.25 C 19.296875 -28.65625 19.738281 -30.375 20.65625 -31.40625 C 21.570312 -32.445312 22.878906 -32.984375 24.578125 -33.015625 C 25.953125 -33.023438 27.140625 -32.742188 28.140625 -32.171875 C 29.140625 -31.609375 29.875 -30.78125 30.34375 -29.6875 C 30.851562 -28.664062 31.296875 -27.273438 31.671875 -25.515625 C 32.046875 -23.753906 32.351562 -21.769531 32.59375 -19.5625 C 32.832031 -17.363281 32.96875 -15.023438 33 -12.546875 C 33.050781 -8.597656 32.664062 -5.632812 31.84375 -3.65625 C 31.019531 -1.6875 29.535156 -0.6875 27.390625 -0.65625 Z M 27.390625 -0.65625 "/></g></g></g><g fill="#91c4f6" fill-opacity="1"><g transform="translate(261.528718, 62.460708)"><g><path d="M 11.328125 1.8125 C 8.023438 1.5 5.554688 -0.0351562 3.921875 -2.796875 C 2.285156 -5.554688 1.71875 -9.59375 2.21875 -14.90625 C 2.726562 -20.164062 3.992188 -23.929688 6.015625 -26.203125 C 8.035156 -28.472656 10.695312 -29.453125 14 -29.140625 C 16.070312 -28.941406 17.84375 -28.347656 19.3125 -27.359375 C 20.789062 -26.378906 22.085938 -25.054688 23.203125 -23.390625 L 22.3125 -23.25 C 22.226562 -24.53125 22.15625 -25.894531 22.09375 -27.34375 C 22.039062 -28.789062 22.019531 -30.148438 22.03125 -31.421875 C 22.050781 -32.703125 22.097656 -33.707031 22.171875 -34.4375 C 22.328125 -36.132812 22.835938 -37.410156 23.703125 -38.265625 C 24.566406 -39.117188 25.804688 -39.46875 27.421875 -39.3125 C 29.203125 -39.132812 30.613281 -38.382812 31.65625 -37.0625 C 32.707031 -35.738281 33.398438 -33.820312 33.734375 -31.3125 C 33.941406 -29.8125 34.070312 -27.910156 34.125 -25.609375 C 34.175781 -23.316406 34.160156 -20.921875 34.078125 -18.421875 C 34.003906 -15.929688 33.863281 -13.597656 33.65625 -11.421875 C 33.289062 -7.515625 32.710938 -4.5 31.921875 -2.375 C 31.128906 -0.257812 30.171875 1.1875 29.046875 1.96875 C 27.929688 2.75 26.691406 3.078125 25.328125 2.953125 C 23.703125 2.796875 22.632812 2.144531 22.125 1 C 21.613281 -0.144531 21.4375 -1.957031 21.59375 -4.4375 L 22.65625 -4.34375 C 21.488281 -2.238281 19.929688 -0.628906 17.984375 0.484375 C 16.046875 1.609375 13.828125 2.050781 11.328125 1.8125 Z M 17.546875 -7.046875 C 18.242188 -6.984375 18.910156 -7.148438 19.546875 -7.546875 C 20.191406 -7.953125 20.734375 -8.609375 21.171875 -9.515625 C 21.609375 -10.429688 21.898438 -11.632812 22.046875 -13.125 C 22.222656 -15.019531 22.0625 -16.59375 21.5625 -17.84375 C 21.070312 -19.09375 20.101562 -19.789062 18.65625 -19.9375 C 17.46875 -20.050781 16.460938 -19.613281 15.640625 -18.625 C 14.816406 -17.644531 14.300781 -16.082031 14.09375 -13.9375 C 13.914062 -12.03125 14.140625 -10.429688 14.765625 -9.140625 C 15.390625 -7.859375 16.316406 -7.160156 17.546875 -7.046875 Z M 17.546875 -7.046875 "/></g></g></g><g fill="#91c4f6" fill-opacity="1"><g transform="translate(292.949114, 65.365698)"><g><path d="M 6.765625 12.140625 C 3.992188 11.566406 2.9375 9.691406 3.59375 6.515625 C 3.84375 5.265625 4.46875 3.941406 5.46875 2.546875 C 6.476562 1.148438 7.738281 -0.203125 9.25 -1.515625 C 10.757812 -2.835938 12.382812 -3.96875 14.125 -4.90625 L 13.90625 -4.078125 C 10.59375 -8.148438 8.21875 -11.84375 6.78125 -15.15625 C 5.351562 -18.46875 4.9375 -21.597656 5.53125 -24.546875 C 5.976562 -26.722656 6.878906 -28.296875 8.234375 -29.265625 C 9.585938 -30.242188 11.210938 -30.539062 13.109375 -30.15625 C 15.597656 -29.644531 17.457031 -27.8125 18.6875 -24.65625 C 19.925781 -21.507812 20.398438 -17.078125 20.109375 -11.359375 L 20.3125 -11.328125 C 22.132812 -17.078125 24.210938 -21.171875 26.546875 -23.609375 C 28.878906 -26.054688 31.253906 -27.035156 33.671875 -26.546875 C 35.191406 -26.234375 36.253906 -25.523438 36.859375 -24.421875 C 37.472656 -23.328125 37.601562 -21.914062 37.25 -20.1875 C 37.019531 -19.050781 36.5625 -17.726562 35.875 -16.21875 C 35.195312 -14.71875 34.316406 -13.101562 33.234375 -11.375 C 32.160156 -9.65625 30.925781 -7.863281 29.53125 -6 C 28.144531 -4.144531 26.644531 -2.300781 25.03125 -0.46875 C 20.757812 4.3125 17.203125 7.71875 14.359375 9.75 C 11.515625 11.789062 8.984375 12.585938 6.765625 12.140625 Z M 6.765625 12.140625 "/></g></g></g></svg>